<svg width="29" height="18" viewBox="0 0 29 18" fill="none" xmlns="http://www.w3.org/2000/svg">
<path d="M29 0.90009C29 0.40324 28.6194 0 28.1504 0H21.3535C20.8845 0 20.5039 0.40324 20.5039 0.90009C20.5039 1.39694 20.8845 1.80018 21.3535 1.80018H23.9001C23.9001 1.80018 23.9023 1.80138 23.9023 1.80258V3.59736C23.9023 3.59736 23.9012 3.59976 23.9001 3.59976H22.206C22.206 3.59976 22.2037 3.60096 22.2037 3.60216V5.39694C22.2037 5.39694 22.2026 5.39934 22.2014 5.39934H21.2652C20.4745 5.39934 19.7149 4.9931 19.2329 4.31263C18.1012 2.71527 16.3765 1.79898 14.5006 1.79898C12.6246 1.79898 10.8999 2.71527 9.76824 4.31263C9.28623 4.9931 8.52668 5.39934 7.73598 5.39934H6.79971C6.79971 5.39934 6.79744 5.39814 6.79744 5.39694V3.60216C6.79744 3.60216 6.79631 3.59976 6.79518 3.59976H5.10105C5.10105 3.59976 5.09879 3.59856 5.09879 3.59736V1.80258C5.09879 1.80258 5.09992 1.80018 5.10105 1.80018H7.64762C8.1166 1.80018 8.49723 1.39694 8.49723 0.90009C8.49723 0.40324 8.1166 0 7.64762 0H0.849609C0.380625 0 0 0.40324 0 0.90009C0 1.39694 0.380625 1.80018 0.849609 1.80018H3.39617C3.39617 1.80018 3.39844 1.80138 3.39844 1.80258V3.59736C3.39844 3.59736 3.3973 3.59976 3.39617 3.59976H1.70205C1.70205 3.59976 1.69979 3.60096 1.69979 3.60216V9.84818C1.69979 11.3141 2.78219 12.5521 4.16535 12.5989C5.30779 12.6379 6.29051 11.8746 6.65074 10.8017C6.65074 10.8005 6.65188 10.7999 6.65301 10.7999H7.73654C8.35109 10.7999 8.94582 11.0459 9.40687 11.4743C9.40801 11.4749 9.40801 11.4767 9.40744 11.4773L7.41426 15.7006C7.26982 16.0066 6.97473 16.1998 6.65188 16.1998H6.00447C5.53549 16.1998 5.15486 16.6031 5.15486 17.0999C5.15486 17.5968 5.53549 18 6.00447 18H6.65188C7.61816 18 8.50176 17.4215 8.93393 16.5059L10.6428 12.8851C10.6428 12.8851 10.6456 12.8833 10.6467 12.8845C11.7087 13.859 13.0602 14.3996 14.5006 14.3996C15.9409 14.3996 17.2924 13.859 18.3544 12.8845C18.3555 12.8833 18.3572 12.8839 18.3584 12.8851L20.0678 16.5077C20.5022 17.4281 21.3756 18 22.3476 18H22.9967C23.4656 18 23.8463 17.5968 23.8463 17.0999C23.8463 16.6031 23.4656 16.1998 22.9967 16.1998H22.3476C22.0236 16.1998 21.7324 16.009 21.5874 15.7024L19.5931 11.4773C19.5931 11.4773 19.5931 11.4749 19.5937 11.4743C20.0547 11.0459 20.65 10.7993 21.264 10.7993H22.3476C22.3476 10.7993 22.3493 10.7999 22.3498 10.8011C22.7095 11.874 23.6922 12.6367 24.8352 12.5983C26.2184 12.5515 27.3008 11.3135 27.3008 9.84758V3.60276C27.3008 3.60276 27.2996 3.60036 27.2985 3.60036H25.6044C25.6044 3.60036 25.6021 3.59916 25.6021 3.59796V1.80318C25.6021 1.80318 25.6033 1.80078 25.6044 1.80078H28.151C28.6199 1.80078 29 1.39694 29 0.90009ZM5.09766 9.90099C5.09766 10.4116 4.69438 10.8239 4.20727 10.7999C3.74961 10.7771 3.39844 10.3576 3.39844 9.87219V5.40294C3.39844 5.40294 3.39957 5.40054 3.4007 5.40054H5.09482C5.09482 5.40054 5.09709 5.40174 5.09709 5.40294L5.09766 9.90099ZM17.8729 10.8071C17.0653 11.9472 15.8362 12.6013 14.5 12.6013C13.1638 12.6013 11.9347 11.9472 11.1271 10.8071C10.3262 9.67597 9.05797 9.0009 7.73598 9.0009H6.79971C6.79971 9.0009 6.79744 8.9997 6.79744 8.9985V7.20372C6.79744 7.20372 6.79857 7.20132 6.79971 7.20132H7.73598C9.05854 7.20132 10.3262 6.52625 11.1271 5.39514C11.9347 4.25503 13.1638 3.60096 14.5 3.60096C15.8362 3.60096 17.0653 4.25503 17.8729 5.39514C18.6738 6.52625 19.942 7.20132 21.264 7.20132H22.2003C22.2003 7.20132 22.2026 7.20252 22.2026 7.20372V8.9985C22.2026 8.9985 22.2014 9.0009 22.2003 9.0009H21.264C19.9415 9.0009 18.6738 9.67597 17.8729 10.8071ZM25.6016 9.90099C25.6016 10.4116 25.1983 10.8239 24.7117 10.7999C24.2541 10.7771 23.9023 10.3576 23.9023 9.87219V5.40294C23.9023 5.40294 23.9035 5.40054 23.9046 5.40054H25.5987C25.5987 5.40054 25.601 5.40174 25.601 5.40294L25.6016 9.90099Z" fill="white"/>
<path d="M14.5 5.40054C13.0947 5.40054 11.9512 6.61206 11.9512 8.10081C11.9512 9.58956 13.0947 10.8011 14.5 10.8011C15.9053 10.8011 17.0488 9.58956 17.0488 8.10081C17.0488 6.61206 15.9053 5.40054 14.5 5.40054ZM14.5 9.0009C14.0316 9.0009 13.6504 8.59706 13.6504 8.10081C13.6504 7.60456 14.0316 7.20072 14.5 7.20072C14.9684 7.20072 15.3496 7.60456 15.3496 8.10081C15.3496 8.59706 14.9684 9.0009 14.5 9.0009Z" fill="white"/>
</svg>
