<svg width="40" height="33" viewBox="0 0 40 33" fill="none" xmlns="http://www.w3.org/2000/svg">
<path d="M18.7734 12.6408V19.1159C18.7734 21.0706 17.1591 22.6601 15.1759 22.6601C14.2121 22.6601 13.3088 22.2925 12.6322 21.6259C11.9523 20.948 11.5784 20.0565 11.5784 19.1151L11.5784 11.3777C12.3622 10.9932 12.8629 10.2049 12.8629 9.33836C12.8629 8.08171 11.8255 7.05883 10.5491 7.05883C9.27274 7.05883 8.23529 8.08252 8.23529 9.33917C8.23529 10.1952 8.72865 10.9811 9.50101 11.3688L9.50101 19.1247C9.50101 20.6119 10.0926 22.0145 11.1676 23.0728C12.2362 24.1263 13.6598 24.7059 15.1751 24.7059C18.3038 24.7059 20.8491 22.1982 20.8491 19.1159V12.6408C20.8491 11.6912 21.2222 10.8014 21.8988 10.1347C22.5869 9.46491 23.4918 9.09654 24.4475 9.09654C26.4315 9.09654 28.045 10.6869 28.045 12.6408V20.3919C27.2669 20.778 26.7695 21.5655 26.7695 22.4263C26.7695 23.683 27.8069 24.7059 29.0833 24.7059C30.3596 24.7059 31.3971 23.6838 31.3971 22.4263C31.3971 21.5631 30.8996 20.7755 30.1215 20.3902V12.6408C30.1215 11.1488 29.5292 9.74542 28.4541 8.68948C27.379 7.63354 25.9529 7.05479 24.4385 7.06044C22.9224 7.06044 21.4996 7.63999 20.431 8.69271C19.3625 9.74542 18.7734 11.148 18.7734 12.6408Z" fill="#999DBF"/>
<path d="M38.6325 32.9412H1.36752C0.611966 32.9412 0 32.3161 0 31.5444V1.3968C0 0.625068 0.611966 0 1.36752 0H38.6325C39.388 0 40 0.625068 40 1.3968V20.8356C40 21.6073 39.388 22.2324 38.6325 22.2324C37.8769 22.2324 37.265 21.6073 37.265 20.8356V2.7936H2.73504V30.1476H38.6325C39.388 30.1476 40 30.7726 40 31.5444C40 32.3161 39.388 32.9412 38.6325 32.9412Z" fill="#999DBF"/>
</svg>
